<?xml version="1.0" standalone="no"?>
<!DOCTYPE svg PUBLIC "-//W3C//DTD SVG 20010904//EN"
 "http://www.w3.org/TR/2001/REC-SVG-20010904/DTD/svg10.dtd">
<svg version="1.0" xmlns="http://www.w3.org/2000/svg"
 width="1059.000000pt" height="1059.000000pt" viewBox="0 0 1059.000000 1059.000000"
 preserveAspectRatio="xMidYMid meet">
<metadata>
Created by potrace 1.14, written by Peter Selinger 2001-2017
</metadata>
<g transform="translate(0.000000,1059.000000) scale(0.100000,-0.100000)"
fill="#000000" stroke="none">
<path d="M4280 9867 c0 -4 -4 -5 -10 -2 -5 3 -10 1 -10 -5 0 -6 -4 -8 -10 -5
-5 3 -10 2 -10 -4 0 -5 -7 -17 -16 -25 -9 -9 -17 -34 -18 -57 -2 -32 3 -46 24
-69 15 -16 25 -32 22 -35 -3 -3 -1 -5 5 -5 6 0 16 -13 23 -30 7 -16 16 -30 20
-30 3 0 7 -6 8 -12 1 -15 10 -53 12 -53 1 0 4 -9 6 -20 7 -34 12 -195 5 -195
-3 0 -7 -13 -8 -30 -5 -78 -7 -90 -14 -90 -3 0 -6 -8 -6 -17 2 -31 -36 -132
-46 -126 -6 3 -7 2 -4 -4 7 -10 -29 -84 -45 -94 -5 -3 -9 -10 -8 -14 4 -12
-111 -125 -127 -125 -7 0 -13 -4 -13 -10 0 -5 -7 -10 -15 -10 -8 0 -15 -5 -15
-12 0 -6 -3 -8 -7 -5 -3 4 -16 1 -27 -7 -23 -15 -81 -31 -108 -29 -10 0 -18
-4 -18 -9 0 -5 -5 -6 -12 -2 -6 4 -33 7 -60 8 -26 0 -48 3 -48 8 0 4 -9 8 -19
8 -11 0 -27 7 -35 16 -9 8 -16 12 -16 9 0 -4 -17 6 -37 23 -21 16 -49 32 -63
35 -29 7 -102 -12 -94 -24 3 -5 1 -9 -4 -9 -22 0 -42 -87 -24 -104 4 -4 7 -11
7 -14 0 -4 16 -24 35 -45 41 -46 118 -171 127 -207 3 -14 9 -29 13 -35 9 -13
27 -86 36 -150 13 -85 7 -190 -15 -270 -21 -76 -69 -187 -83 -193 -5 -2 -8 -8
-8 -14 0 -10 -41 -64 -86 -113 -31 -34 -110 -95 -123 -95 -7 0 -9 -4 -6 -10 5
-9 -9 -15 -18 -7 -2 1 -11 -6 -21 -16 -10 -9 -21 -15 -26 -12 -4 3 -11 -2 -14
-11 -4 -9 -9 -14 -13 -11 -3 4 -15 1 -27 -5 -11 -7 -24 -13 -28 -14 -5 -1 -10
-3 -13 -4 -3 -1 -8 -3 -12 -4 -5 -1 -33 -8 -63 -15 -97 -25 -227 -20 -368 13
-46 10 -149 50 -229 87 -110 51 -155 55 -197 16 -25 -23 -31 -49 -40 -162 -2
-27 -6 -57 -9 -65 -3 -8 -8 -31 -11 -50 -7 -54 -16 -92 -25 -109 -5 -9 -7 -24
-6 -33 2 -10 -1 -18 -6 -18 -5 0 -9 -7 -9 -15 0 -41 -139 -344 -162 -353 -4
-2 -8 -10 -8 -18 0 -8 -4 -14 -9 -14 -5 0 -12 -8 -15 -18 -4 -10 -19 -33 -34
-50 -15 -17 -34 -40 -42 -50 -39 -50 -79 -90 -120 -122 -25 -19 -49 -40 -55
-46 -12 -14 -125 -75 -125 -68 0 2 -12 -2 -27 -10 -24 -12 -95 -29 -128 -31
-5 0 -14 -3 -20 -6 -13 -8 -258 -4 -315 5 -129 20 -147 24 -215 41 -33 9 -72
22 -88 30 -15 7 -25 10 -22 5 3 -4 -24 7 -59 25 -69 35 -128 39 -168 10 -13
-8 -19 -15 -14 -15 5 0 2 -8 -6 -17 -14 -16 -16 -150 -13 -1268 1 -687 3
-1254 5 -1260 1 -5 1 -12 0 -15 -7 -19 -4 -156 5 -162 6 -5 6 -8 0 -8 -8 0
-12 -119 -5 -155 1 -5 2 -12 1 -15 -7 -17 -5 -130 2 -130 5 0 5 -5 1 -12 -4
-6 -6 -43 -6 -82 4 -143 1 -261 -6 -267 -7 -5 -83 -30 -110 -35 -21 -4 -114
-54 -149 -80 -17 -13 -37 -24 -44 -24 -7 0 -10 -2 -7 -5 3 -3 -18 -29 -46 -58
-54 -56 -84 -92 -102 -123 -49 -86 -65 -118 -84 -172 -29 -78 -22 -122 22
-154 30 -21 40 -22 178 -19 140 3 309 4 340 2 12 -1 16 -17 17 -74 2 -39 5
-90 8 -112 3 -22 8 -66 11 -97 4 -32 11 -58 15 -58 5 0 6 -6 3 -13 -5 -13 0
-38 31 -159 4 -16 10 -28 14 -28 3 0 7 -12 8 -26 0 -15 6 -36 12 -48 9 -18 16
-34 36 -86 19 -48 31 -70 37 -70 4 0 8 -8 8 -17 0 -10 9 -29 20 -43 11 -14 20
-31 20 -37 0 -7 5 -13 11 -13 5 0 7 -5 4 -10 -3 -6 -2 -10 2 -10 5 0 17 -16
27 -35 11 -19 23 -35 28 -35 4 0 8 -5 8 -11 0 -6 6 -16 13 -23 6 -7 23 -28 37
-47 32 -44 215 -227 259 -259 19 -14 40 -31 48 -38 7 -7 13 -11 13 -7 0 3 12
-6 27 -20 15 -14 33 -25 40 -25 7 0 16 -7 21 -16 5 -9 13 -16 18 -16 21 -2 44
-11 44 -17 0 -3 24 -17 52 -31 29 -13 56 -29 60 -35 4 -5 8 -6 8 -1 0 5 7 3
15 -4 8 -7 15 -9 15 -5 0 4 6 3 12 -3 17 -13 178 -66 248 -81 97 -20 104 -21
145 -27 22 -3 60 -8 85 -12 70 -10 3873 -9 3888 1 7 6 12 6 12 0 0 -13 32 -13
48 0 6 5 12 6 12 1 0 -11 650 -11 668 0 6 4 12 3 12 -1 0 -11 91 -10 108 0 6
5 12 5 12 0 0 -12 54 -10 62 2 5 7 8 7 8 -1 0 -10 70 -10 98 1 6 2 12 0 12 -4
0 -11 19 -9 39 3 7 5 16 5 20 0 8 -11 121 -12 121 -1 0 4 7 4 17 -1 9 -6 29
-6 45 -2 15 5 30 5 32 2 2 -4 104 -5 226 -2 122 3 224 2 227 -3 2 -4 12 -4 21
1 15 7 27 7 57 3 20 -3 371 0 410 4 134 13 205 24 260 39 6 2 28 6 50 11 22 4
45 12 51 17 7 5 16 8 20 6 11 -3 154 51 172 65 6 5 12 6 12 1 0 -5 4 -4 8 1 4
6 31 21 60 34 29 14 58 31 64 38 6 7 19 13 29 13 11 0 19 4 19 8 0 4 13 15 29
25 34 20 144 102 185 137 49 43 146 144 146 153 0 4 5 5 10 2 6 -3 10 -1 10 5
0 6 6 17 12 24 7 7 22 25 33 40 11 16 25 34 32 41 38 40 180 287 199 345 1 3
5 15 9 28 4 12 12 22 17 22 5 0 7 4 3 10 -3 5 1 25 9 45 8 19 13 35 11 35 -2
0 2 15 10 34 8 18 16 46 19 61 9 48 25 128 33 160 3 17 8 324 10 684 2 360 6
658 9 663 3 4 2 8 -3 8 -4 0 -8 235 -8 522 l0 522 53 1 c28 0 52 -2 52 -5 0
-3 26 -6 58 -7 119 -3 202 -8 202 -13 0 -3 24 -5 53 -5 28 0 78 -2 110 -5 31
-3 57 -2 57 1 0 4 8 10 18 13 23 8 50 60 56 111 5 41 13 88 19 115 11 43 20
76 26 85 3 6 7 18 8 28 4 27 77 169 117 229 54 79 50 104 -26 183 -34 36 -86
98 -116 138 -29 39 -59 79 -65 87 -7 8 -27 35 -46 60 -29 38 -141 152 -191
194 -8 7 -30 19 -47 27 -18 8 -33 17 -33 21 0 5 -9 8 -20 8 -11 0 -20 4 -20 9
0 14 -138 53 -196 56 -65 3 -72 8 -69 45 1 16 -2 30 -7 30 -5 0 -6 5 -2 12 10
16 11 268 1 268 -5 0 -5 5 -1 12 10 15 11 98 1 98 -4 0 -4 8 1 18 9 18 8 59
-1 69 -4 3 -2 14 4 24 6 13 6 19 -1 19 -5 0 -10 5 -10 11 0 5 4 8 8 5 10 -6 8
36 -2 52 -4 7 -3 12 3 12 10 0 9 19 -2 38 -5 7 -3 12 3 12 8 0 8 6 0 20 -8 15
-8 20 1 20 9 0 9 3 0 14 -9 10 -9 16 -1 21 8 5 8 11 1 19 -7 9 -7 16 0 23 7 7
7 13 1 17 -6 3 -7 20 -2 41 4 19 4 37 0 40 -5 3 -5 18 0 34 4 15 4 34 -1 42
-4 7 -4 19 2 25 6 7 6 15 1 18 -10 6 -7 60 4 78 4 7 2 8 -4 4 -9 -5 -9 0 -2
18 5 14 6 26 1 26 -9 0 -5 55 5 72 4 7 2 8 -4 4 -9 -5 -9 0 -2 18 5 14 6 26 2
26 -4 0 -7 20 -7 45 0 25 5 45 10 45 7 0 7 3 0 8 -5 4 -10 14 -10 22 0 8 5 18
10 22 7 5 7 8 0 8 -8 0 -10 132 -5 340 0 8 -1 39 -3 68 -3 28 0 52 4 52 5 0 6
6 4 13 -3 6 -7 136 -10 287 -4 273 -7 320 -26 435 -6 33 -12 69 -14 80 -18
114 -146 452 -176 463 -5 2 -9 8 -9 14 0 13 -100 162 -112 166 -4 2 -8 7 -8
12 0 17 -159 183 -232 242 -23 18 -49 41 -60 51 -10 9 -22 17 -26 17 -5 0 -17
9 -27 20 -10 11 -24 20 -31 20 -7 0 -14 4 -16 8 -4 10 -105 72 -118 72 -6 0
-10 4 -10 10 0 5 -3 9 -7 8 -8 -2 -64 23 -73 32 -3 3 -9 6 -15 7 -5 1 -39 14
-75 29 -83 34 -241 80 -311 89 -30 4 -63 10 -74 13 -33 9 -3865 10 -3871 0 -3
-4 -11 -5 -17 -1 -17 10 -127 10 -127 0z"/>
</g>
</svg>
